<svg xmlns="http://www.w3.org/2000/svg"  viewBox="0 0 48 48" width="48px" height="48px" fill-rule="evenodd" clip-rule="evenodd" baseProfile="basic"><path fill-rule="evenodd" d="M37.999,14.867v1.001h4.001v-1.001	H37.999z" clip-rule="evenodd"/><path fill-rule="evenodd" d="M42.998,16.322v1.001h4.001v-1.001	H42.998z" clip-rule="evenodd"/><path fill-rule="evenodd" d="M39.926,19.419	c-0.28-0.379-1.136-1.548-1.368-1.863c-1.167-1.593-0.432-3.733,1.269-4.839c1.621-1.056,3.949-0.997,5.096,0.563	c0.224,0.303,1.105,1.505,1.369,1.863c1.261,1.716,0.777,4.057-0.996,5.211C43.557,21.487,41.158,21.094,39.926,19.419z" clip-rule="evenodd"/><path fill-rule="evenodd" d="M2.998,32.998v2.001h6.001v-2.001	H2.998z" clip-rule="evenodd"/><path fill-rule="evenodd" d="M2.999,20.998v2.001h6.001v-2.001	H2.999z" clip-rule="evenodd"/><path fill-rule="evenodd" d="M0.999,10.998v2.001h6.001v-2.001	H0.999z" clip-rule="evenodd"/><path fill-rule="evenodd" d="M26.998,7.997v2.001h6.001V7.997	H26.998z" clip-rule="evenodd"/><path fill-rule="evenodd" d="M29.998,15.998v2.001h6.001v-2.001	H29.998z" clip-rule="evenodd"/><path fill-rule="evenodd" d="M35.998,28.997v2.001h6.001v-2.001	H35.998z" clip-rule="evenodd"/><path fill-rule="evenodd" d="M8.559,40.889l-0.303-0.94	l-0.459-0.032c-2.721-0.381-4.799-2.083-4.799-4.919c0-1.085,0.419-2.376,1.203-3.192l0.455-0.376L4.13,30.239	c-0.811-2.245-1.131-4.579-1.131-7.241c0-0.82,0.143-1.593,0.404-2.317c-0.481-1.065-1.059-2.252-1.505-3.425	c-0.505-1.324-0.899-2.752-0.899-4.257c0-3.377,2.381-7,7-7c1.344,0,2.645,0.304,3.885,0.844c3.139-2.367,7.281-3.844,11.115-3.844	c4.312,0,10,2.857,10,7c0,1.535-0.273,3.009-0.751,4.472c0.696,0.225,1.32,0.485,1.847,0.785c1.049,0.601,1.904,1.485,1.904,2.743	c0,0.857-0.355,1.565-0.88,2.108c-0.508,0.524-1.173,0.896-1.849,1.161c-1.005,0.396-2.168,0.608-3.227,0.691	c0.151,1.569,0.677,2.56,1.315,3.296l0.223,0.217l0.375-0.308c1.144-0.757,2.535-1.165,4.044-1.165c3.323,0,6,3.788,6,7	c0,3.148-1.924,7.425-6.129,7.948l-0.3,0.017l-0.411,0.647c-3.576,5.279-8.453,7.388-15.16,7.388	C14.371,46.998,10.19,44.621,8.559,40.889z" clip-rule="evenodd"/><path fill="#fff" fill-rule="evenodd" d="M40.731,17.825	c-0.268-0.363-1.143-1.557-1.368-1.861c-0.753-1.029-0.301-2.556,1.009-3.408c1.312-0.853,2.989-0.712,3.747,0.317	c0.225,0.305,1.1,1.499,1.368,1.863c0.907,1.233,0.576,2.927-0.736,3.78C43.441,19.369,41.639,19.059,40.731,17.825z" clip-rule="evenodd"/><path fill-rule="evenodd" d="M39.926,18.419	c-0.28-0.379-1.136-1.548-1.368-1.863c-1.167-1.593-0.432-3.733,1.269-4.839c1.621-1.056,3.949-0.997,5.096,0.563	c0.224,0.303,1.105,1.505,1.369,1.863c1.261,1.716,0.777,4.057-0.996,5.211C43.557,20.487,41.158,20.094,39.926,18.419z M44.205,17.678c0.851-0.553,1.028-1.599,0.476-2.349c-0.272-0.371-1.14-1.555-1.367-1.863c-0.359-0.487-1.415-0.711-2.397-0.072	c-0.903,0.588-1.099,1.499-0.749,1.977c0.219,0.293,1.112,1.513,1.368,1.86C42.119,18.026,43.323,18.251,44.205,17.678z" clip-rule="evenodd"/><path fill-rule="evenodd" d="M36.853,23.974	c-0.315-0.455-0.201-1.077,0.253-1.391l7.213-4.987c0.455-0.315,1.077-0.201,1.391,0.253c0.315,0.455,0.201,1.077-0.253,1.391	l-7.213,4.987C37.789,24.542,37.166,24.429,36.853,23.974z" clip-rule="evenodd"/><path fill="#fff" fill-rule="evenodd" d="M4.469,18.607	c-1.069-2.412-2.469-4.944-2.469-7.609c0-2.901,2.019-6,6-6c1.373,0,2.728,0.365,4.017,1.011c3.008-2.445,7.167-4.011,10.983-4.011	c4.079,0,9,2.668,9,6c0,1.697-0.36,3.333-1,5L4.469,18.607z" clip-rule="evenodd"/><path fill="#fff" fill-rule="evenodd" d="M17.999,11.998	c8.927,0,17,1.035,17,4c0,2.235-3.584,3-6,3L17.999,11.998z" clip-rule="evenodd"/><path fill="#fff" fill-rule="evenodd" d="M31.526,24.81	c0,0.003,0.085-0.075,0.085-0.075c1.085-1.105,2.62-1.737,4.388-1.737c2.603,0,5,3.181,5,6c0,3.072-2.005,7-6,7	c-3.423,5.737-8.139,8-15,8c-6.131,0-10.127-2.927-11-7c-2.939,0-5-1.527-5-4c0-1.557,0.903-3,2-3c-1.452-2.775-2-5.572-2-9	c0-5.545,8.068-9,14-9c4.345,0,11,0.793,11,7C28.999,22.231,30.267,23.734,31.526,24.81z" clip-rule="evenodd"/><path fill-rule="evenodd" d="M8.257,37.949l-0.459-0.032	c-2.721-0.381-4.799-2.083-4.799-4.919c0-1.085,0.419-2.376,1.203-3.192l0.455-0.376L4.13,28.239	c-0.811-2.245-1.131-4.579-1.131-7.241c0-6.493,8.957-10,15-10c2.2,0,5.125,0.196,7.533,1.259c2.488,1.099,4.467,3.161,4.467,6.741	c0,2.143,0.601,3.379,1.359,4.256l0.223,0.217l0.375-0.308c1.144-0.757,2.535-1.165,4.044-1.165c3.323,0,6,3.788,6,7	c0,3.148-1.924,7.425-6.129,7.948l-0.3,0.017l-0.411,0.647c-3.576,5.279-8.453,7.388-15.16,7.388c-5.628,0-9.809-2.377-11.44-6.109	L8.257,37.949z M34.139,35.486c0.181-0.303,0.507-0.488,0.86-0.488c3.212,0,5-3.169,5-6c0-2.444-2.141-5-4-5	c-0.763,0-1.461,0.136-2.08,0.384l-0.816,0.427l0.831,0.732c0.587,0.603,1.065,1.373,1.065,2.457c0,2.884-3.011,5-6,5	c-2.771,0-7-0.843-7-4c0-1.645,1.464-2.535,2.679-2.947c0.523-0.177,1.091,0.104,1.268,0.627c0.177,0.523-0.104,1.091-0.627,1.268	c-1.089,0.369-1.32,0.816-1.32,1.052c0,1.019,2,2,5,2c2.327,0,4-1.616,4-3c0-2.015-5-2.393-5-9c0-2.625-1.349-4.063-3.275-4.912	c-2.007-0.885-4.581-1.088-6.725-1.088c-5.88,0-13,3.368-13,8c0,3.308,0.525,5.937,1.885,8.537c0.348,0.664-0.136,1.463-0.885,1.463	c-0.24,0-1,0.679-1,2c0,1.736,1.371,3,4,3c0.471,0,0.879,0.331,0.977,0.791c0.743,3.463,4.191,6.209,10.023,6.209	C26.566,42.998,30.926,40.875,34.139,35.486z" clip-rule="evenodd"/><path fill-rule="evenodd" d="M27.999,18.998c0-0.551,0.448-1,1-1	c1.127,0,2.493-0.181,3.54-0.592c0.521-0.205,0.904-0.444,1.143-0.692c0.223-0.228,0.317-0.455,0.317-0.716	c0-0.232-0.168-0.588-0.899-1.008c-0.759-0.435-1.924-0.816-3.452-1.123c-3.037-0.611-7.211-0.869-11.649-0.869	c-0.552,0-1-0.448-1-1c0-0.551,0.448-1,1-1c4.487,0,8.813,0.26,12.044,0.908c1.605,0.323,3.017,0.756,4.052,1.349	c1.049,0.601,1.904,1.485,1.904,2.743c0,0.857-0.355,1.565-0.88,2.108c-0.508,0.524-1.173,0.896-1.849,1.161	c-1.349,0.531-2.983,0.731-4.271,0.731C28.447,19.998,27.999,19.55,27.999,18.998z" clip-rule="evenodd"/><path fill-rule="evenodd" d="M16.395,38.413	c-0.879-0.896-1.529-2.061-2.067-3.149c-0.571-1.153-0.983-2.145-1.471-3.001c-0.5-0.879-0.875-1.22-1.159-1.309	c-0.667-0.209-0.919-1.021-0.488-1.571c0.272-0.347,0.705-0.987,1.261-1.464c0.617-0.531,1.424-0.92,2.527-0.92	c1.371,0,2.527,0.28,3.696,0.521c1.179,0.244,2.48,0.479,4.304,0.479c0.551,0,1,0.449,1,1c0,0.552-0.449,1-1,1c-3.957,0-5.639-1-8-1	c-0.572,0-0.928,0.183-1.223,0.436c-0.091,0.077-0.172,0.157-0.251,0.243l-0.065,0.079l0.201,0.196	c0.375,0.403,0.679,0.875,0.935,1.321c0.519,0.912,1.036,2.116,1.524,3.105c0.521,1.055,1.059,1.979,1.703,2.635	c0.617,0.631,1.301,0.985,2.176,0.985c1.284,0,2.115-0.699,2.752-1.948c0.66-1.293,1.001-3.008,1.26-4.644	c0.085-0.545,0.599-0.917,1.144-0.831c0.545,0.085,0.917,0.599,0.831,1.144c-0.257,1.627-0.633,3.631-1.453,5.239	c-0.848,1.663-2.263,3.04-4.533,3.04C18.474,39.998,17.301,39.337,16.395,38.413z" clip-rule="evenodd"/><path fill-rule="evenodd" d="M17.031,33.459	c-0.828-0.237-1.697-0.461-3.032-0.461c-0.552,0-1-0.448-1-1c0-0.551,0.448-1,1-1c1.603,0,2.677,0.279,3.585,0.54	c0.897,0.259,1.524,0.46,2.415,0.46c0.499,0,1.027-0.183,1.615-0.523c0.291-0.168,0.581-0.367,0.88-0.585	c0.3-0.22,0.589-0.448,0.892-0.683c0.437-0.337,1.065-0.257,1.404,0.179c0.337,0.437,0.257,1.065-0.179,1.404	c-0.288,0.221-0.607,0.472-0.935,0.713c-0.329,0.241-0.685,0.485-1.061,0.703c-0.745,0.432-1.627,0.792-2.616,0.792	C18.774,33.998,17.87,33.701,17.031,33.459z" clip-rule="evenodd"/><path fill-rule="evenodd" d="M4.999,29.998c0-0.551,0.448-1,1-1h2	c0.551,0,1,0.449,1,1c0,0.552-0.449,1-1,1h-2C5.447,30.998,4.999,30.55,4.999,29.998z" clip-rule="evenodd"/><path fill-rule="evenodd" d="M17.146,24.522	c-0.288-0.471-0.14-1.087,0.329-1.376c0.579-0.355,1.253-0.616,2.004-0.803l0.533-0.115l-0.115-0.14	c-0.451-0.563-0.895-1.124-1.343-1.607c-0.901-0.969-1.692-1.484-2.556-1.484c-1.436,0-2.651,1.072-3.049,2.308	c-0.169,0.525-0.733,0.813-1.259,0.644c-0.525-0.169-0.813-0.733-0.644-1.259c0.628-1.947,2.523-3.693,4.952-3.693	c3.173,0,4.885,3.441,6.712,5.3c0.603,0.612,0.199,1.653-0.659,1.699c-1.621,0.088-2.78,0.393-3.531,0.855	C18.051,25.139,17.435,24.991,17.146,24.522z" clip-rule="evenodd"/><path fill-rule="evenodd" d="M25.257,18.998	c0.816,0,1.589,1.12,1.723,2.5c0.133,1.38-0.421,2.5-1.237,2.5c-0.816,0-1.589-1.12-1.723-2.5	C23.886,20.118,24.441,18.998,25.257,18.998z" clip-rule="evenodd"/><path fill-rule="evenodd" d="M30.641,13.933	c-0.516-0.199-0.773-0.777-0.576-1.292c0.607-1.577,0.935-3.092,0.935-4.643c0-2.495-4.113-5-8-5c-4.484,0-9.504,2.324-12.228,5.636	C10.421,9.061,9.79,9.122,9.363,8.771C8.937,8.421,8.875,7.79,9.226,7.363c3.121-3.795,8.716-6.365,13.773-6.365	c4.312,0,10,2.857,10,7c0,1.845-0.393,3.603-1.067,5.359C31.734,13.873,31.155,14.13,30.641,13.933z" clip-rule="evenodd"/><path fill-rule="evenodd" d="M3.554,19.013	c-0.508-1.147-1.161-2.46-1.656-3.757c-0.505-1.324-0.899-2.752-0.899-4.257c0-3.377,2.381-7,7-7c1.549,0,3.04,0.403,4.447,1.107	c0.493,0.247,0.693,0.848,0.447,1.341c-0.247,0.493-0.848,0.693-1.341,0.447c-1.172-0.587-2.356-0.895-3.552-0.895	c-3.331,0-5,2.563-5,5c0,1.161,0.305,2.332,0.767,3.544c0.473,1.237,1.055,2.396,1.616,3.661c0.224,0.504-0.004,1.095-0.509,1.319	C4.369,19.746,3.778,19.518,3.554,19.013z" clip-rule="evenodd"/></svg>